<?xml version="1.0"?><svg width="640" height="480" xmlns="http://www.w3.org/2000/svg">
 <defs>
  <filter height="1.73743" y="-0.368715" width="2.375" x="-0.6875" id="filter5302-1" color-interpolation-filters="sRGB">
   <feGaussianBlur id="feGaussianBlur5304-7" stdDeviation="9.821428"/>
  </filter>
  <filter height="1.418228" y="-0.209114" width="1.646466" x="-0.323233" id="filter6549-1-4" color-interpolation-filters="sRGB">
   <feGaussianBlur id="feGaussianBlur6551-2-0" stdDeviation="6.113183"/>
  </filter>
  <filter height="1.502754" y="-0.251377" width="1.434975" x="-0.217488" id="filter5219-9" color-interpolation-filters="sRGB">
   <feGaussianBlur id="feGaussianBlur5221-4" stdDeviation="5.188416"/>
  </filter>
  <filter height="2.165533" y="-0.582767" width="2.236568" x="-0.618284" id="filter5249-8" color-interpolation-filters="sRGB">
   <feGaussianBlur id="feGaussianBlur5251-8" stdDeviation="10.555821"/>
  </filter>
  <filter height="1.638401" y="-0.319201" width="2.21421" x="-0.607105" id="filter5273-2" color-interpolation-filters="sRGB">
   <feGaussianBlur id="feGaussianBlur5275-4" stdDeviation="2.235874"/>
  </filter>
  <filter height="2.214395" y="-0.607197" width="1.404562" x="-0.202281" id="filter5277-5" color-interpolation-filters="sRGB">
   <feGaussianBlur id="feGaussianBlur5279-5" stdDeviation="2.235874"/>
  </filter>
  <filter height="1.7128" y="-0.3564" width="1.324241" x="-0.16212" id="filter6533-1-1" color-interpolation-filters="sRGB">
   <feGaussianBlur id="feGaussianBlur6535-4-7" stdDeviation="6.351255"/>
  </filter>
  <filter height="1.441242" y="-0.220621" width="1.526222" x="-0.263111" id="filter5688-11" color-interpolation-filters="sRGB">
   <feGaussianBlur id="feGaussianBlur5690-5" stdDeviation="1.868782"/>
  </filter>
  <filter height="1.939375" y="-0.469687" width="1.583689" x="-0.291845" id="filter5172-2" color-interpolation-filters="sRGB">
   <feGaussianBlur id="feGaussianBlur5174-7" stdDeviation="6.32608"/>
  </filter>
  <filter height="2.328818" y="-0.664409" width="2.097719" x="-0.54886" id="filter5201-6" color-interpolation-filters="sRGB">
   <feGaussianBlur id="feGaussianBlur5203-1" stdDeviation="7.969961"/>
  </filter>
  <filter height="3.816221" y="-1.40811" width="2.147089" x="-0.573545" id="filter6608-9-4" color-interpolation-filters="sRGB">
   <feGaussianBlur id="feGaussianBlur6610-8-2" stdDeviation="6.182556"/>
  </filter>
  <filter height="3.900402" y="-1.450201" width="1.575191" x="-0.287595" id="filter6592-2-3" color-interpolation-filters="sRGB">
   <feGaussianBlur id="feGaussianBlur6594-4-2" stdDeviation="2.586588"/>
  </filter>
  <filter height="1.724547" y="-0.362273" width="1.329955" x="-0.164978" id="filter7304-2" color-interpolation-filters="sRGB">
   <feGaussianBlur id="feGaussianBlur7306-1" stdDeviation="2.252435"/>
  </filter>
 </defs>
 <metadata id="metadata4780">image/svg+xml</metadata>
 <g>
  <title>Layer 1</title>
  <g id="layer1">
   <g id="g7707"/>
   <path fill="#000000" stroke="#000000" d="m91.944778,72.49646c27.138184,0.302582 57.949463,34.887146 81.317291,0c29.920441,-34.193115 62.363342,-13.390656 82.832535,0l0,80.812195c-27.915359,-2.856689 -46.364487,-29.418945 -82.506607,-11.859161c-42.127319,20.467712 -87.98053,-29.714325 -123.56456,-66.427643c24.504044,2.919006 36.215866,1.269379 41.921341,-2.525391z" id="rect5281"/>
   <path fill="#000000" stroke="#000000" filter="url(#filter5302-1)" d="m176.799744,117.012993c0.000031,13.452904 -7.67511,24.35865 -17.142853,24.35865c-9.467743,0 -17.142853,-10.905746 -17.142853,-24.35865c-0.000031,-13.452911 7.67511,-24.358643 17.142822,-24.358643c9.467743,0 17.142853,10.905731 17.142853,24.358643l0.000031,0z" id="path5306"/>
   <path fill="#000000" stroke="#000000" stroke-width="0" stroke-linejoin="round" stroke-miterlimit="4" stroke-dashoffset="0" d="m74.518478,172.690277l-23.218384,-7.316956l-13.860748,51.109344l21.254089,6.424072l15.825012,-50.216461l0.000031,0z" id="rect5148"/>
   <path fill="#000000" stroke="#000000" stroke-width="0" stroke-linejoin="round" stroke-miterlimit="4" stroke-dashoffset="0" d="m59.708817,215.324249l-22.379547,1.204468l-7.478729,74.928802l30.058136,-0.311584l-0.199829,-75.821716l-0.000031,0.000031z" id="rect5150"/>
   <path opacity="0.548077" fill="#000000" stroke="#000000" filter="url(#filter6549-1-4)" id="path6543" d="m62.225849,194.748138c-4.326225,13.599152 -11.065159,24.104187 -15.051819,23.463684c-3.986687,-0.640518 -3.71143,-12.184036 0.614799,-25.783188c4.326221,-13.599136 11.065159,-24.104187 15.051846,-23.463684c3.986687,0.640518 3.711403,12.184036 -0.614822,25.783173l-0.000004,0.000015z"/>
   <path fill="#000000" stroke="#000000" stroke-width="0" stroke-linejoin="round" stroke-miterlimit="4" stroke-dashoffset="0" d="m69.989792,173.14389l22.807098,-8.512756l16.390991,49.832062l-20.786804,8.007629l-18.411285,-49.326965l0,0.000031z" id="rect5142"/>
   <path fill="#000000" stroke="#000000" d="m41.240662,77.57373l11.858932,10.310425l-39.132751,45.009979c0,0 -10.562042,-4.430115 -11.239883,-9.805878c-0.677841,-5.375763 38.513748,-45.514526 38.513748,-45.514526l-0.000015,0l-0.000031,0z" id="rect5051"/>
   <path fill="#000000" stroke="#000000" d="m64.066574,47.483368c0,0 4.208313,25.537994 -11.280121,27.021423c-15.488434,1.483429 10.551849,23.843353 10.551849,23.843353l19.782349,8.267609l33.093842,-14.913116c0,0 -7.528473,-12.224762 -10.031281,-12.561523c-2.502838,-0.336761 -13.447937,-2.319031 -16.172791,-12.368591c-2.724854,-10.049561 -0.414948,-15.854279 -0.414948,-15.854279l-25.528839,-3.434875l-0.000061,0z" id="path4575"/>
   <path fill="#000000" stroke="#000000" id="path4547" d="m61.324631,52.19223c5.884918,10.743591 25.445068,15.003448 35.243225,5.113678c3.76413,-4.114136 2.913605,-11.868896 2.179749,-16.99765c-0.733856,-5.128754 -4.107361,-5.889679 -4.100586,-8.015228c0.006989,-2.125549 1.131287,-1.871918 0.514069,-4.374573c-6.265656,-27.818054 -53.687805,-12.60675 -40.426117,12.624603c-3.731873,7.182617 0.121704,11.174347 6.589661,11.649139l0,0.000031z"/>
   <path fill="#000000" stroke="#000000" filter="url(#filter5219-9)" id="path5205" d="m65.963516,55.564606c0,0 3.52536,21.393494 -9.449493,22.636169c-12.974854,1.242676 8.839386,19.973877 8.839386,19.973877l16.57193,6.925873l27.723114,-12.492889c0,0 -6.306671,-10.240845 -8.403351,-10.522919c-2.096649,-0.282104 -11.265503,-1.942688 -13.548157,-10.361298c-2.282654,-8.41864 -0.347595,-13.281342 -0.347595,-13.281342l-21.385834,-2.877441l0,-0.000031z"/>
   <path fill="#000000" stroke="#000000" d="m62.095963,52.408752c5.765625,10.525848 24.929382,14.699341 34.528931,5.01004c3.687836,-4.030762 2.854553,-11.628357 2.135559,-16.653137c-0.718994,-5.02478 -4.024109,-5.770325 -4.017456,-7.852783c0.006989,-2.082458 1.108337,-1.833984 0.503662,-4.285889c-6.138672,-27.254272 -52.599686,-12.351227 -39.606781,12.368744c-3.656219,7.037048 0.119232,10.947876 6.456085,11.413055l0,-0.000031z" id="path4478"/>
   <path fill="#000000" stroke="#000000" filter="url(#filter5249-8)" id="path5223" d="m66.187851,53.557312c5.132935,9.370758 22.193665,13.086273 30.739777,4.460236c3.283142,-3.588409 2.54129,-10.352264 1.901215,-14.825653c-0.640076,-4.473389 -3.58252,-5.137085 -3.576599,-6.991028c0.006012,-1.853943 0.986725,-1.632721 0.448395,-3.815582c-5.464996,-24.263428 -46.827469,-10.995819 -35.260406,11.011414c-3.255005,6.264801 0.10614,9.74646 5.74762,10.160583l0,0.000031z"/>
   <path fill="#000000" stroke="#000000" d="m63.506577,54.818359c12.537567,13.070679 26.190979,9.231537 34.416656,1.472809c-14.552704,10.142914 -25.787506,6.174835 -34.416656,-1.472809z" id="path4484"/>
   <path fill="#000000" stroke="#000000" d="m84.621201,30.575134c0,0 2.777924,14.89975 5.80838,14.647217c-0.441345,0.171906 -6.315491,3.807556 -8.838837,1.262695c0.697266,-1.236694 3.192139,1.681 5.368835,-1.392853c0.819916,-1.780914 -1.130188,-6.050079 -2.338379,-14.517059z" id="path4545"/>
   <path fill="#000000" stroke="#000000" filter="url(#filter5273-2)" id="path5261" d="m84.621201,30.575134c0,0 2.777924,14.89975 5.80838,14.647217c-0.441345,0.171906 -6.315491,3.807556 -8.838837,1.262695c0.697266,-1.236694 3.192139,1.681 5.368835,-1.392853c0.819916,-1.780914 -1.130188,-6.050079 -2.338379,-14.517059z"/>
   <path fill="#000000" stroke="#000000" d="m69.029892,37.466217c0.140656,1.798004 12.690613,-0.984436 14.466766,-3.998352c4.301819,0.643402 10.734802,-0.229462 11.178375,-1.422546c1.702698,-4.579834 -4.674652,-2.63504 -11.629303,-1.049652c-6.954712,1.585388 -16.540619,-0.92746 -14.283691,6.470581l0.267883,-0.000031l-0.000031,0z" id="path4556"/>
   <path fill="#000000" stroke="#000000" filter="url(#filter5277-5)" id="path5263" d="m69.029892,37.466217c0.140656,1.798004 12.690613,-0.984436 14.466766,-3.998352c4.301819,0.643402 10.734802,-0.229462 11.178375,-1.422546c1.702698,-4.579834 -4.674652,-2.63504 -11.629303,-1.049652c-6.954712,1.585388 -16.540619,-0.92746 -14.283691,6.470581l0.267883,-0.000031l-0.000031,0z"/>
   <path fill="#000000" stroke="#000000" d="m81.521835,32.927643c0.848755,1.844788 -2.519379,2.519165 -5.644226,3.508148c-3.124847,0.989044 -5.562683,1.829773 -5.760162,0.631134c-0.532806,-3.234009 1.568481,-3.012817 4.693298,-4.001862c3.124847,-0.989014 6.407898,-1.095367 6.71109,-0.137421z" id="path4549"/>
   <path fill="#000000" stroke="#000000" id="path4552" d="m84.818039,32.076141c-0.054108,1.707367 2.776703,1.127777 5.521912,0.871735c2.745209,-0.256104 4.909515,-0.402283 4.670319,-1.395782c-0.645355,-2.680542 -2.201355,-1.821533 -4.946564,-1.56543c-2.745209,0.256104 -5.324188,1.247986 -5.245697,2.089539l0.000031,-0.000061z"/>
   <path fill="#000000" stroke="#000000" stroke-width="1px" d="m68.049728,34.513c0,0 9.196411,-4.285706 12.767853,-3.482147" id="path4558"/>
   <path fill="#000000" stroke="#000000" stroke-width="1px" d="m84.567581,30.673737c0,0 8.482147,-0.625 9.196442,-2.767853" id="path4562"/>
   <path fill="#000000" stroke="#000000" d="m93.88298,48.197418c1.616333,2.556549 -0.358643,6.499481 -5.240387,6.218658c-4.840149,-0.278412 -9.568726,0.932556 -9.654968,0.286591c-0.098907,-0.740997 4.047424,-1.098724 8.761292,-2.398651c4.713867,-1.299957 5.270203,-4.613647 6.134064,-4.106598z" id="path4572"/>
   <path fill="#000000" stroke="#000000" id="path5064" d="m110.65596,80.232117l-12.590515,9.403107l35.689026,47.786652c0,0 10.861359,-3.635071 11.935791,-8.945831c1.074432,-5.31073 -35.034332,-48.243927 -35.034332,-48.243927l0.000031,0z"/>
   <path fill="#000000" stroke="#000000" d="m2.467789,124.586853c1.516968,-10.858826 11.534576,-8.390472 11.534576,-8.390472l23.972961,43.264069l-3.743347,5.692078c0,0 -33.281113,-29.706818 -31.764191,-40.565674z" id="rect5053"/>
   <path opacity="0.548077" fill="#000000" stroke="#000000" filter="url(#filter6533-1-1)" id="path6527" d="m22.742771,116.290443c-8.553643,7.596909 -16.549536,12.559898 -17.859353,11.085136c-1.309817,-1.474777 4.562457,-8.828835 13.116101,-16.425743c8.553638,-7.596909 16.549557,-12.559875 17.859375,-11.085106c1.309818,1.474777 -4.562485,8.828804 -13.116123,16.425713l0,0z"/>
   <path fill="#000000" stroke="#000000" id="path5066" d="m146.55394,130.821442c-0.702393,-10.941742 -10.876251,-9.227875 -10.876251,-9.227875l-27.134796,41.354401l3.308136,5.955536c0,0 35.405243,-27.14032 34.702911,-38.082092l0,0.000031z"/>
   <path opacity="0.548077" fill="#000000" stroke="#000000" filter="url(#filter6533-1-1)" d="m125.142387,117.00473c8.553642,7.596916 16.549553,12.559891 17.859367,11.085129c1.309814,-1.47477 -4.562469,-8.828819 -13.116119,-16.425728c-8.553627,-7.596901 -16.549538,-12.559875 -17.859352,-11.085106c-1.309807,1.474762 4.562477,8.828812 13.116104,16.425705l0,0z" id="path6539"/>
   <path fill="#000000" stroke="#000000" d="m51.988052,74.691589c0,0 14.414917,17.142853 24.39444,16.071442c9.979553,-1.071442 20.328735,-8.571442 19.589478,-13.928558c-0.739227,-5.357147 16.86554,2.857147 16.86554,2.857147c0,0 6.449524,11.428558 11.104828,15.357147c2.472687,2.08667 -8.036194,18.214294 -8.036194,18.214294c0,0 -4.522675,-7.014374 -5.193146,-5.349701c-7.243713,17.98407 -22.65683,50.094879 -17.153961,57.99765c4.715729,6.772339 -42.977142,1.760315 -42.977142,1.760315c9.828369,-22.663422 -12.917374,-54.815125 -14.157516,-59.887939c0,0 1.532608,-1.129517 -5.379562,5.836853c-1.480499,1.492096 -11.030533,-15.357147 -11.030533,-15.357147c0,0 9.975067,-4.285706 16.827621,-20.357147l15.146149,-3.214294l0,-0.000061z" id="path5049"/>
   <path fill="#000000" stroke="#000000" d="m50.257706,166.485016c-0.581299,-1.199493 48.172668,-2.405457 45.637421,0c-5.664795,5.374786 -9.93692,13.417847 -15.811981,21.568115c-4.476532,2.350159 -8.953064,1.565247 -13.429565,0.388489c-7.268738,-17.080383 -14.250885,-17.530518 -16.395874,-21.956604z" id="path5126"/>
   <path fill="#000000" stroke="#000000" filter="url(#filter5688-11)" id="path5682" d="m81.464462,177.489212c0,5.61377 -3.815948,10.164673 -8.523163,10.164673c-4.707214,0 -8.523163,-4.550903 -8.523163,-10.164673c0,-5.61377 3.815964,-10.164673 8.523163,-10.164673c4.707214,0 8.523163,4.550903 8.523163,10.164673z"/>
   <path fill="#000000" stroke="#000000" stroke-width="1.046212" stroke-miterlimit="4" stroke-dasharray="4.18484951, 1.04621238" stroke-dashoffset="0" d="m67.643539,181.145721c-0.127258,1.267456 -0.588928,7.375275 7.555969,6.474487c2.90097,-0.320862 5.061493,-2.656769 5.061493,-6.289917c0,-9.834503 -0.203186,-14.736359 -0.203186,-14.736359" id="path5134"/>
   <path fill="#000000" stroke="#000000" stroke-width="1.046212" stroke-miterlimit="4" stroke-dasharray="4.18484951, 1.04621238" stroke-dashoffset="0" d="m79.991287,186.035065c3.919342,-7.455017 7.166656,-13.986206 14.037781,-18.662811" id="path5138"/>
   <path fill="#000000" stroke="#000000" stroke-width="1.046212" stroke-miterlimit="4" stroke-dasharray="4.18484951, 1.04621238" stroke-dashoffset="0" id="path5140" d="m66.661606,185.876892c-1.754425,-10.631439 -9.88269,-13.639526 -15.158722,-18.662781"/>
   <path fill="#000000" stroke="#000000" stroke-width="0" stroke-linejoin="round" stroke-miterlimit="4" stroke-dashoffset="0" d="m85.886826,213.72525l23.270538,0.764404l5.15918,75.190399l-28.629547,-0.133118l0.199829,-75.821716l0,0.000031z" id="rect5146"/>
   <path opacity="0.548077" fill="#000000" stroke="#000000" filter="url(#filter6533-1-1)" id="path6541" d="m127.659271,150.323044c5.590378,-7.065155 9.09787,-13.554993 7.834167,-14.495483c-1.263702,-0.940475 -6.820038,4.024551 -12.410416,11.089706c-5.590378,7.065155 -9.097832,13.555008 -7.834137,14.495499c1.263702,0.940475 6.820007,-4.024567 12.410385,-11.089722l0,0z"/>
   <path fill="#000000" stroke="#000000" id="path5068" d="m98.339951,177.575684c-3.556946,-3.622589 -6.025146,-8.293976 -4.69516,-11.345367c1.184204,-2.716919 4.564392,-4.306763 8.252899,-5.596375c7.435242,-2.599518 10.577789,-0.109406 13.177307,7.325836c0.901978,4.618988 -12.495087,12.42337 -16.735046,9.615906z"/>
   <path fill="#000000" stroke="#000000" d="m47.058212,174.808807c3.817352,-3.347046 6.627289,-7.821228 5.528717,-10.963348c-0.978149,-2.797699 -4.23027,-4.635376 -7.812256,-6.196655c-7.22052,-3.147125 -10.540115,-0.898468 -13.687256,6.322052c-1.244156,4.538788 11.533142,13.321198 15.970795,10.837952z" id="path5060"/>
   <path fill="#000000" stroke="#000000" stroke-width="0" stroke-linejoin="round" stroke-miterlimit="4" stroke-dashoffset="0" filter="url(#filter5172-2)" d="m101.022491,113.407654c-1.40049,8.031235 -10.098396,11.210724 -17.307838,7.312805c-5.790787,-3.130905 -10.800476,-13.874603 -8.942436,-7.312805c1.582535,5.588806 -2.387314,6.615692 -3.5214,6.712036c-15.173061,1.28923 -23.274605,10.274429 -25.759342,-6.712036c-1.115932,-7.628845 -16.491257,-24.668198 -4.745407,-27.456757c4.395977,-1.04364 23.014725,12.938751 32.510914,11.294327c13.011597,-2.253174 27.31649,-12.292389 32.891838,-12.087936c13.338867,0.489166 2.95591,16.66539 -5.126343,28.250366l0.000015,0z" id="path5162"/>
   <path fill="#000000" stroke="#000000" stroke-width="0" stroke-linejoin="round" stroke-miterlimit="4" stroke-dashoffset="0" filter="url(#filter5201-6)" id="path5179" d="m90.934662,144.530762c0.006638,7.953842 -7.796814,14.404617 -17.42514,14.404617c-9.628342,0 -17.431778,-6.450775 -17.42514,-14.404617c-0.006638,-7.953857 7.796814,-14.404617 17.42514,-14.404617c9.628326,0 17.431778,6.45076 17.42514,14.404617z"/>
   <path fill="#000000" stroke="#000000" d="m52.927658,74.769318c0,0 8.847778,14.347565 21.619507,13.889587c4.85025,-0.172363 -11.688416,9.802917 -10.751343,10.606598c1.130676,0.969696 14.023468,-9.596436 14.023468,-9.596436c0,0 11.682037,10.669159 12.621124,9.596436c0.879791,-1.004974 -13.937927,-10.351837 -9.348969,-11.237946c6.909851,-1.33429 12.621124,-15.026031 12.621124,-15.026031c0,0 -9.7724,12.81369 -16.711273,13.637054c-8.767792,1.040375 -24.073639,-11.869293 -24.073639,-11.869293l0,0.000031z" id="path5284"/>
   <path fill="#000000" stroke="#000000" id="path5286" d="m80.371162,88.218369c0,1.060181 -1.059326,1.919632 -2.366074,1.919632c-1.30674,0 -2.366081,-0.859451 -2.366081,-1.919632c0,-1.060196 1.059341,-1.919647 2.366081,-1.919647c1.306747,0 2.366074,0.859451 2.366074,1.919647z"/>
   <path fill="#000000" stroke="#000000" filter="url(#filter5302-1)" id="path5288" d="m227.514008,98.084442c0.000031,17.653397 -7.67511,31.96431 -17.142853,31.96431c-9.467743,0 -17.142853,-14.310913 -17.142853,-31.96431c-0.000031,-17.653397 7.67511,-31.964294 17.142822,-31.964294c9.467743,0 17.142853,14.310898 17.142853,31.964294l0.000031,0z"/>
   <path opacity="0.548077" fill="#000000" stroke="#000000" filter="url(#filter5688-11)" d="m81.464462,177.489212c0,5.61377 -3.815948,10.164673 -8.523163,10.164673c-4.707214,0 -8.523163,-4.550903 -8.523163,-10.164673c0,-5.61377 3.815964,-10.164673 8.523163,-10.164673c4.707214,0 8.523163,4.550903 8.523163,10.164673z" id="path5694"/>
   <path opacity="0.548077" fill="#000000" stroke="#000000" filter="url(#filter6533-1-1)" d="m20.225901,149.608765c-5.590391,-7.06517 -9.097858,-13.555008 -7.834162,-14.495499c1.263696,-0.940475 6.820019,4.024567 12.410406,11.089737c5.590368,7.06514 9.097837,13.554977 7.834143,14.495468c-1.263699,0.940475 -6.820023,-4.024567 -12.410391,-11.089706l0.000004,0z" id="path6537"/>
   <path opacity="0.548077" fill="#000000" stroke="#000000" filter="url(#filter6549-1-4)" d="m53.644981,252.359314c0.092499,15.45929 -3.06678,28.588379 -7.056458,29.324677c-3.989666,0.736267 -7.298916,-11.199066 -7.391415,-26.658371c-0.092499,-15.459274 3.06678,-28.588394 7.056446,-29.324677c3.989677,-0.736282 7.298927,11.199066 7.391426,26.658356l0,0.000015z" id="path6553"/>
   <path opacity="0.548077" fill="#000000" stroke="#000000" filter="url(#filter6549-1-4)" d="m86.032188,197.778595c4.326225,13.599152 11.065163,24.104187 15.051842,23.463684c3.986671,-0.640518 3.711418,-12.184036 -0.614815,-25.783188c-4.326218,-13.599136 -11.065155,-24.104187 -15.051834,-23.463669c-3.986679,0.640503 -3.711418,12.184036 0.614807,25.783173l0,0z" id="path6555"/>
   <path opacity="0.548077" fill="#000000" stroke="#000000" filter="url(#filter6549-1-4)" id="path6557" d="m94.613068,255.389771c-0.092499,15.45929 3.06678,28.588379 7.056458,29.324677c3.98967,0.736298 7.29892,-11.199066 7.391418,-26.658356c0.092499,-15.45929 -3.06678,-28.588394 -7.05645,-29.324692c-3.989677,-0.736282 -7.298927,11.199081 -7.391426,26.658356l0,0.000015z"/>
   <path fill="#000000" stroke="#000000" d="m115.328049,288.376831c0,6.13678 -7.385132,4.325989 -15.614044,4.325989c-8.228912,0 -14.185455,1.810791 -14.185455,-4.325989c0,-6.13678 0.242279,-10.040222 17.042633,-5.754517c7.973541,2.033997 12.756897,-0.382324 12.756897,5.754517l-0.000031,0z" id="path6559"/>
   <path fill="#000000" stroke="#000000" id="path6562" d="m60.328018,288.519775c0,6.13678 -7.562164,4.325989 -15.988297,4.325989c-8.426147,0 -14.525497,1.810791 -14.525497,-4.325989c0,-6.13678 0.248093,-10.040283 17.451126,-5.754578c8.164658,2.034119 13.062668,-0.382202 13.062668,5.754578z"/>
   <path fill="#000000" stroke="#000000" filter="url(#filter6608-9-4)" id="path6564" d="m111.701279,288.41864c0,2.28714 -5.251305,1.612274 -11.102592,1.612274c-5.851265,0 -10.086777,0.674866 -10.086777,-1.612274c0,-2.28714 0.172264,-3.741943 12.118378,-2.144684c5.669708,0.758087 9.070969,-0.142456 9.070969,2.144684l0.000023,0z"/>
   <path fill="#000000" stroke="#000000" filter="url(#filter6592-2-3)" d="m54.970871,288.267273c0,2.164307 -5.349411,1.525574 -11.309998,1.525574c-5.960602,0 -10.275223,0.638672 -10.275223,-1.525574c0,-2.164307 0.175491,-3.540894 12.344788,-2.02948c5.77562,0.717407 9.240433,-0.134827 9.240433,2.02948z" id="path6566"/>
   <path fill="#000000" stroke="#000000" d="m54.864059,42.292145l6.114929,8.649445l7.55249,-2.352905c0,0 -6.269928,-3.036285 -8.609802,-5.811523c-1.070343,-1.26944 -0.48761,-3.460114 -0.679626,-5.067078c-0.622833,-5.212341 -0.131165,-10.120819 6.735626,-13.896484l11.908508,-0.610535c0,0 3.266815,-0.358643 4.167145,1.08194c0.90036,1.440582 -4.109955,2.579987 -4.109955,2.579987c0.059998,0 4.657532,0.299713 6.015961,-1.666809c0.875977,-1.268127 -0.1138,-5.05484 -0.861572,-5.05484c7.694763,2.092682 1.208099,-7.262573 8.490356,0.907837c1.80072,1.620636 1.625153,3.424347 1.625153,3.424347l1.80072,2.520996c0,0 -2.160858,-19.447723 -24.129578,-14.045593c-21.968735,5.402161 -18.725952,20.907806 -18.725952,20.907806l2.705566,8.43335l0.000031,0.000061z" id="path7283"/>
   <path opacity="0.870192" fill="#000000" stroke="#000000" filter="url(#filter7304-2)" d="m85.481911,20.195745c-0.212227,0.71253 -3.372307,-0.514315 -3.943092,0.64492c-0.416016,0.844997 0.456055,2.132311 -0.205627,2.61095c-0.532837,0.385468 -2.155258,-3.721586 -2.738083,-3.345968c-2.904991,1.87221 -6.05925,2.057703 -7.89698,2.057703c-2.462013,0 -3.655525,2.107151 -5.339577,1.113752c-0.44664,-0.263456 -3.660965,1.932821 -5.240551,2.973564c-0.607861,0.400494 -4.806156,8.21423 -5.987366,8.846127c-1.607758,0.860085 -0.107044,-4.879648 -0.133003,-5.101768c-0.322765,-2.761213 8.830708,-11.236492 9.488689,-11.479706c1.939026,-0.716736 5.445091,-1.005796 7.390388,-1.890512c2.716766,-1.23558 9.664566,-2.132916 12.725113,0.409454c1.297813,1.078096 1.880089,2.338047 1.880089,3.161484l0,0z" id="path7285"/>
   <path opacity="0.870192" fill="#000000" stroke="#000000" id="path7308" d="m78.430229,34.346832c0,0.749664 -0.607727,1.357407 -1.357391,1.357407c-0.749672,0 -1.357391,-0.607742 -1.357391,-1.357407c0,-0.749664 0.607719,-1.357391 1.357391,-1.357391c0.749664,0 1.357391,0.607727 1.357391,1.357391z"/>
   <path opacity="0.870192" fill="#000000" stroke="#000000" d="m93.34095,31.311127c0,0.749664 -0.607727,1.357407 -1.357391,1.357407c-0.749672,0 -1.357391,-0.607742 -1.357391,-1.357407c0,-0.749664 0.607719,-1.357391 1.357391,-1.357391c0.749664,0 1.357391,0.607727 1.357391,1.357391z" id="path7310"/>
  </g>
 </g>
</svg>